<svg height='100px' width='100px'  fill="#000000" xmlns:dc="http://purl.org/dc/elements/1.1/" xmlns:cc="http://creativecommons.org/ns#" xmlns:rdf="http://www.w3.org/1999/02/22-rdf-syntax-ns#" xmlns:svg="http://www.w3.org/2000/svg" xmlns="http://www.w3.org/2000/svg" xmlns:sodipodi="http://sodipodi.sourceforge.net/DTD/sodipodi-0.dtd" xmlns:inkscape="http://www.inkscape.org/namespaces/inkscape" version="1.1" x="0px" y="0px" viewBox="0 0 100 100"><g transform="translate(0,-952.36218)"><path style="text-indent:0;text-transform:none;direction:ltr;block-progression:tb;baseline-shift:baseline;color:#000000;enable-background:accumulate;" d="m 49.9109,960.40961 a 2.0000605,2.0003396 0 0 0 -1.8194,1.38374 l -9.4199,29.1944 -30.6675999,-0.0606 A 2.0000605,2.0003396 0 0 0 6.8278,994.548 l 24.8499,17.9824 -9.5414,29.1642 a 2.0000605,2.0003396 0 0 0 3.0794,2.2378 l 24.7793,-18.0834 24.7896,18.0837 a 2.0000605,2.0003396 0 0 0 3.0791,-2.2381 l -9.5414,-29.1642 24.8499,-17.9824 a 2.0000605,2.0003396 0 0 0 -1.1762,-3.62085 l -30.6683,0.0606 -9.4301,-29.19506 a 2.0000605,2.0003396 0 0 0 -1.9867,-1.38308 z" fill="#000000" fill-opacity="1" fill-rule="evenodd" stroke="none" marker="none" visibility="visible" display="inline" overflow="visible"></path></g></svg>